<?xml version="1.0" standalone="no"?><!DOCTYPE svg PUBLIC "-//W3C//DTD SVG 1.1//EN" "http://www.w3.org/Graphics/SVG/1.1/DTD/svg11.dtd"><svg t="1500675369002" class="icon" style="" viewBox="0 0 1024 1024" version="1.1" xmlns="http://www.w3.org/2000/svg" p-id="3595" xmlns:xlink="http://www.w3.org/1999/xlink" width="48" height="48"><defs><style type="text/css"></style></defs><path d="M540.5696 102.4c-225.83296 0-409.6 183.74656-409.6 409.6s183.76704 409.6 409.6 409.6c225.85344 0 409.6-183.74656 409.6-409.6S766.42304 102.4 540.5696 102.4zM704.77824 506.92096c-9.23648 10.87488-22.40512 16.4864-35.61472 16.4864-10.69056 0-21.44256-3.66592-30.24896-11.12064l-51.63008-43.84768 0 188.1088c0 25.8048-20.91008 46.71488-46.71488 46.71488s-46.71488-20.91008-46.71488-46.71488l0-188.1088-51.63008 43.84768c-19.6608 16.71168-49.152 14.29504-65.86368-5.36576-16.71168-19.68128-14.29504-49.152 5.36576-65.86368l128.59392-109.21984c17.44896-14.80704 43.04896-14.80704 60.49792 0l128.59392 109.21984C719.07328 457.76896 721.48992 487.23968 704.77824 506.92096z" p-id="3596" fill="#bfbfbf"></path></svg>