<?xml version="1.0" standalone="no"?><!DOCTYPE svg PUBLIC "-//W3C//DTD SVG 1.1//EN" "http://www.w3.org/Graphics/SVG/1.1/DTD/svg11.dtd"><svg t="1500675241243" class="icon" style="" viewBox="0 0 1024 1024" version="1.1" xmlns="http://www.w3.org/2000/svg" p-id="2881" xmlns:xlink="http://www.w3.org/1999/xlink" width="48" height="48"><defs><style type="text/css"></style></defs><path d="M512 960C264.576 960 64 759.36 64 512 64 264.64 264.576 64 512 64 759.424 64 960 264.64 960 512 960 759.36 759.424 960 512 960L512 960ZM512 0C229.216 0 0 229.12 0 512 0 794.88 229.216 1024 512 1024 794.784 1024 1024 794.88 1024 512 1024 229.12 794.784 0 512 0L512 0ZM540.128 302.72C532.448 295.04 521.952 292.8 512 294.72 502.048 292.8 491.552 295.04 483.872 302.72L302.88 483.84C290.368 496.32 290.368 516.48 302.88 529.28 315.328 541.76 335.616 541.76 348.128 529.28L480 397.12 480 736C480 753.6 494.304 768 512 768 529.696 768 544 753.6 544 736L544 397.12 675.872 529.28C688.384 541.76 708.64 541.76 721.12 529.28 733.632 516.48 733.632 496.32 721.12 483.84L540.128 302.72 540.128 302.72Z" p-id="2882" fill="#bfbfbf"></path></svg>