<?xml version="1.0" standalone="no"?><!DOCTYPE svg PUBLIC "-//W3C//DTD SVG 1.1//EN" "http://www.w3.org/Graphics/SVG/1.1/DTD/svg11.dtd"><svg t="1500677477263" class="icon" style="" viewBox="0 0 1024 1024" version="1.1" xmlns="http://www.w3.org/2000/svg" p-id="29685" xmlns:xlink="http://www.w3.org/1999/xlink" width="48" height="48"><defs><style type="text/css"></style></defs><path d="M699.04725 764.206732c0 0 8.433763 28.641418 26.351337 30.120214 37.704182 3.109067 135.522993-64.001605 143.055614-161.879465 7.527486-97.87786-45.175187-154.349411-94.114117-188.230801C778.103827 146.819357 533.409177 11.291229 514.580192 0 499.52522 7.530054 251.061692 143.05048 254.83057 444.219248c-48.941497 33.88139-101.644171 90.352941-94.114117 188.230801 7.530054 97.87786 105.38224 165.383905 143.05048 161.879465 20.559383-1.91268 26.351337-30.120214 26.351337-30.120214l11.298931-52.702673c0 0 56.466416 82.825455 71.523956 82.825455l101.639036 0 101.646738 0c18.82385 0 71.523956-82.825455 71.523956-82.825455L699.04725 764.206732zM607.700743 766.11171l-92.28616 0L423.123288 766.11171c-13.478616 0-86.730403-111.982911-86.730403-111.982911s-32.145858 102.255201-45.9685 105.318056c-26.38728 5.845868-98.224453-48.733542-103.508071-129.096903C177.812473 491.879635 280.309005 458.991812 280.309005 458.991812c0-311.124973 221.100653-423.513526 234.586972-430.252834 16.849554 10.107678 233.90919 133.484513 233.90919 426.33505 43.809354 30.32817 96.019095 76.360854 96.019095 180.497927 0 44.245804-67.814127 127.037884-101.55688 124.162445-14.687841-1.252869-23.588862-26.962367-23.588862-26.962367l-29.799295-77.457115C689.881791 655.314917 624.550297 766.11171 607.700743 766.11171z" p-id="29686"></path><path d="M435.526183 824.442026c-11.291229 0-22.585026 11.291229-22.585026 22.590161l0 109.166522c0 11.291229 11.293797 22.590161 22.585026 22.590161 11.296364 0 22.590161-11.296364 22.590161-22.590161l0-109.166522C458.116343 835.733256 446.822547 824.442026 435.526183 824.442026z" p-id="29687"></path><path d="M518.346503 821.890075c-11.01909 0-22.048449 11.026792-22.048449 22.048449l0 158.015595c0 11.021657 11.029359 22.045881 22.048449 22.045881 11.021657 0 22.045881-11.024224 22.045881-22.045881l0-158.015595C540.392384 832.916867 529.36816 821.890075 518.346503 821.890075z" p-id="29688"></path><path d="M593.639337 828.203202c-11.296364 0-22.587593 11.296364-22.587593 22.590161l0 79.056577c0 11.291229 11.288662 22.590161 22.587593 22.590161 11.291229 0 22.585026-11.296364 22.585026-22.590161l0-79.056577C616.224363 839.499566 604.933133 828.203202 593.639337 828.203202z" p-id="29689"></path><path d="M514.585327 230.127475c-63.434219 0-114.850647 51.418995-114.850647 114.84808 0 63.431652 51.416428 114.84808 114.850647 114.84808 63.426517 0 114.845512-51.418995 114.845512-114.84808C629.433407 281.546471 578.014411 230.127475 514.585327 230.127475zM514.585327 435.952364c-50.248281 0-90.979376-40.733662-90.979376-90.979376s40.731095-90.976809 90.979376-90.976809c50.243147 0 90.976809 40.731095 90.976809 90.976809S564.831041 435.952364 514.585327 435.952364z" p-id="29690"></path><path d="M824.798889 934.707377c-13.255256 0-25.817327 2.947324-37.090585 8.194999-14.135859-47.408786-58.04534-81.983362-110.049692-81.983362-13.170534 0-25.809625 2.246436-37.591219 6.325964l0 25.676122c11.460675-5.206597 24.181921-8.133382 37.591219-8.133382 43.704092 0 80.19905 30.826237 88.961435 71.916762 2.454392 15.414402 2.028211 28.356441 0.84466 33.601548 4.926755-8.025553 15.945845-18.828985 24.567025-24.721066 9.653257-5.548055 20.831522-8.736711 32.767158-8.736711 36.379427 0 65.868072 29.488645 65.868072 65.868072 0 0.428748-0.025674 0.852362-0.033376 1.28111l22.143441 0c0.007702-0.428748 0.033376-0.852362 0.033376-1.28111C912.810402 974.111148 873.40663 934.707377 824.798889 934.707377z" p-id="29691"></path><path d="M236.294263 942.904943c-11.275825-5.247675-23.835328-8.194999-37.090585-8.194999C150.59337 934.707377 111.189598 974.111148 111.189598 1022.716322c0 0.428748 0.025674 0.852362 0.033376 1.28111l22.143441 0c-0.007702-0.428748-0.033376-0.852362-0.033376-1.28111 0-36.379427 29.488645-65.868072 65.868072-65.868072 11.933068 0 23.113901 3.188655 32.767158 8.736711 8.62118 5.892081 19.640269 16.695513 24.567025 24.721066-1.183551-5.245107-1.609732-18.187146 0.84466-33.601548 8.762384-41.090524 45.257342-71.916762 88.961435-71.916762 13.409298 0 26.130544 2.926785 37.591219 8.133382l0-25.676122c-11.781594-4.079528-24.420685-6.325964-37.591219-6.325964C294.339603 860.92158 250.427555 895.496156 236.294263 942.904943z" p-id="29692"></path></svg>