<?xml version="1.0" standalone="no"?><!DOCTYPE svg PUBLIC "-//W3C//DTD SVG 1.1//EN" "http://www.w3.org/Graphics/SVG/1.1/DTD/svg11.dtd"><svg t="1500676622379" class="icon" style="" viewBox="0 0 1024 1024" version="1.1" xmlns="http://www.w3.org/2000/svg" p-id="26978" xmlns:xlink="http://www.w3.org/1999/xlink" width="48" height="48"><defs><style type="text/css"></style></defs><path d="M668.014286 719.767997s7.127328-42.600237-36.616965-94.623077c42.600237-119.335922 48.459688-228.103138 48.459688-228.103138s87.433328 20.066011 87.433328 106.410541c0 147.673317-99.276051 216.315674-99.276051 216.315674z m-241.152338-51.967582s-58.550511-187.91688-58.550511-266.044262c0-35.045167 3.867074-66.223261 10.035564-94.623077h266.947841c6.224772 28.462239 10.153244 59.70173 10.153244 94.623077 0 76.920904-58.310034 266.044262-58.310034 266.044262H426.861948z m84.896552-317.585125c-29.971615 0-54.31914 24.229844-54.31914 54.262858 0 30.089295 24.347524 54.43682 54.31914 54.43682 30.089295 0 54.380538-24.347524 54.380538-54.43682 0-30.033014-24.291243-54.262858-54.380538-54.262858zM500.094856 107.194394V33.175587h21.148669v72.145134c24.167422 17.645892 89.729627 73.65451 119.335922 181.574428H383.116631c28.703739-104.895025 90.873684-160.365384 116.978225-179.700755zM355.868033 719.767997s-99.158371-68.642356-99.15837-216.316697c0-86.34453 87.433328-106.410542 87.433328-106.410542s5.92085 108.767216 48.459688 228.103138c-43.806715 52.024887-36.734646 94.624101-36.734646 94.624101z m191.900612 10.871605l-17.763572-17.639752-18.853394 59.033511-22.472827-59.033511-15.350617 30.695093-22.478967-55.593156h121.692597l-24.77322 42.537815z" fill="#FF7D26" p-id="26979"></path><path d="M560.100508 957.956841c-2.784416 0-4.900613-2.116197-4.900614-4.832052V821.395606a4.879124 4.879124 0 0 1 4.900614-4.894474c2.654456 0 4.894474 2.240017 4.894473 4.894474v131.729183c0 2.715855-2.240017 4.832052-4.894473 4.832052zM517.679349 924.904051c-2.715855 0-4.894474-2.233877-4.894473-4.894473V788.348955c0-2.784416 2.177596-4.955872 4.894473-4.955872 2.778276 0 4.894474 2.171456 4.894474 4.955872v131.660623c0 2.660596-2.116197 4.894474-4.894474 4.894473zM475.320613 990.824413c-2.778276 0-4.949732-2.233877-4.949732-5.012154V854.145497c0-2.654456 2.171456-4.894474 4.949732-4.894473 2.660596 0 4.894474 2.240017 4.894473 4.894473v131.666762c0 2.778276-2.233877 5.012154-4.894473 5.012154z" fill="#FF7D26" p-id="26980"></path></svg>